<svg xmlns="http://www.w3.org/2000/svg" width="477" height="531" viewBox="0 0 477 531">
  <defs>
    <mask id="cutout-mask">
      <rect width="100%" height="100%" fill="white" />
      
      <path d="M357.57,398.378l107.388,134.2v-134.2Z" transform="translate(-159.951 -250.457)" fill="black" />
      <path d="M317.235,528.627V699.74H457.49Z" transform="translate(-163.362 -246.508)" fill="black" />
    </mask>
  </defs>

  <g mask="url(#cutout-mask)">
    <g transform="translate(-276.735 -240.943)">
      <path d="M240.615,285.751l37.8,46.76h42.233l-5.769-10h150.4v36.637H278.416L576.8,721.607V598.3H541.038v23.9l-40.8-50.3V305.552l16.985-19.8Z" transform="translate(117.253 -10.679)" fill="#0b0b0b"/>
      <path d="M578.973,361.6V458.5H542.621V397.932h-42.5V361.6Z" transform="translate(117.253 -10.679)" fill="#0b0b0b"/>
      <path d="M257.965,703.337H189.8l15.856-17.648.213-304.593L189.46,362.888h39.547l303.029,372.49H280.267V484.242L242.429,437.93V685.689Z" transform="translate(115.784 -10.565)" fill="#0b0b0b"/>
    </g>
  </g>
</svg>